# xmcd
#
# Track frame offsets: 
#        150
#        21555
#        42602
#        62022
#        80995
#        106795
#        130845
#        153875
#        172690
#        189992
#        207922
#        230752
#
# Disc length: 3297 seconds
#
# Revision: 4
# Processed by: cddbd v1.5.2PL0 Copyright (c) Steve Scherf et al.
# Submitted via: ExactAudioCopy v0.99pb1
#
DISCID=9f0cdf0c
DTITLE=The Fabulous Thunderbirds - High Water
DYEAR=1997
DGENRE=Rock
TTITLE0=Too Much Of Everything
TTITLE1=Do Right By Me
TTITLE2=Tortured
TTITLE3=High Water
TTITLE4=Hurt On Me
TTITLE5=Hand To Mouth
TTITLE6=Promises You Can't Keep
TTITLE7=I Can't Have You
TTITLE8=Too Hot To Handle
TTITLE9=Save It For Someone Who Cares
TTITLE10=It's About Time
TTITLE11=That's All I Need To Know
EXTD=
EXTT0=
EXTT1=
EXTT2=
EXTT3=
EXTT4=
EXTT5=
EXTT6=
EXTT7=
EXTT8=
EXTT9=
EXTT10=
EXTT11=
PLAYORDER=
